<svg xmlns="http://www.w3.org/2000/svg" xmlns:xlink="http://www.w3.org/1999/xlink" width="1080" zoomAndPan="magnify" viewBox="0 0 810 809.999993" height="1080" preserveAspectRatio="xMidYMid meet" version="1.0"><defs><clipPath id="8f6cc2a35c"><path d="M 318.128906 243 L 492.128906 243 L 492.128906 567 L 318.128906 567 Z M 318.128906 243 " clip-rule="nonzero"/></clipPath></defs><g clip-path="url(#8f6cc2a35c)"><path fill="#24ffd1" d="M 448.628906 243 C 402.949219 243 376.15625 267.09375 376.15625 321.988281 L 376.15625 370.285156 L 318.214844 370.285156 L 318.214844 428.144531 L 376.15625 428.144531 L 376.15625 567 L 434.097656 567 L 434.097656 428.144531 L 480.453125 428.144531 L 492.042969 370.285156 L 434.097656 370.285156 L 434.097656 331.773438 C 434.097656 311.097656 440.851562 300.855469 460.285156 300.855469 L 492.042969 300.855469 L 492.042969 245.375 C 486.550781 244.632812 470.542969 243 448.628906 243 Z M 448.628906 243 " fill-opacity="1" fill-rule="nonzero"/></g></svg>