<svg xmlns="http://www.w3.org/2000/svg" xmlns:xlink="http://www.w3.org/1999/xlink" width="1080" zoomAndPan="magnify" viewBox="0 0 810 809.999993" height="1080" preserveAspectRatio="xMidYMid meet" version="1.0"><defs><clipPath id="d6ead18e6f"><path d="M 72.773438 72.773438 L 737.273438 72.773438 L 737.273438 737.273438 L 72.773438 737.273438 Z M 72.773438 72.773438 " clip-rule="nonzero"/></clipPath></defs><g clip-path="url(#d6ead18e6f)"><path fill="#24ffd1" d="M 247.386719 620.695312 L 271.4375 634.746094 C 281.53125 640.632812 291.972656 645.828125 302.757812 650.332031 C 313.539062 654.835938 324.574219 658.605469 335.859375 661.640625 C 347.144531 664.679688 358.582031 666.960938 370.167969 668.480469 C 381.753906 670 393.390625 670.746094 405.078125 670.722656 C 551.851562 670.722656 670.835938 551.742188 670.835938 404.96875 C 670.835938 258.195312 551.851562 139.210938 405.078125 139.210938 C 258.304688 139.210938 139.324219 258.195312 139.324219 404.96875 C 139.296875 416.660156 140.046875 428.296875 141.570312 439.890625 C 143.089844 451.480469 145.371094 462.917969 148.414062 474.207031 C 151.453125 485.496094 155.226562 496.53125 159.734375 507.320312 C 164.238281 518.105469 169.441406 528.546875 175.332031 538.644531 L 189.351562 562.695312 L 167.660156 642.421875 Z M 73.015625 737.164062 L 117.929688 572.171875 C 110.5625 559.542969 104.058594 546.480469 98.421875 532.988281 C 92.789062 519.496094 88.066406 505.691406 84.265625 491.574219 C 80.460938 477.453125 77.605469 463.144531 75.699219 448.648438 C 73.796875 434.148438 72.855469 419.589844 72.882812 404.96875 C 72.882812 221.496094 221.609375 72.773438 405.078125 72.773438 C 588.550781 72.773438 737.273438 221.496094 737.273438 404.96875 C 737.273438 588.4375 588.550781 737.164062 405.078125 737.164062 C 390.464844 737.1875 375.917969 736.246094 361.429688 734.34375 C 346.941406 732.4375 332.644531 729.585938 318.535156 725.785156 C 304.425781 721.984375 290.628906 717.269531 277.144531 711.636719 C 263.660156 706.007812 250.605469 699.511719 237.984375 692.148438 Z M 285.191406 249.101562 C 289.648438 248.792969 294.113281 248.746094 298.578125 248.96875 C 300.371094 249.101562 302.164062 249.300781 303.957031 249.5 C 309.242188 250.097656 315.03125 253.320312 317.015625 257.773438 C 326.914062 280.230469 336.511719 302.816406 345.804688 325.539062 C 347.863281 330.589844 346.632812 337.066406 342.714844 343.378906 C 340.015625 347.648438 337.105469 351.769531 333.976562 355.738281 C 330.222656 360.554688 322.152344 369.390625 322.152344 369.390625 C 321.179688 370.632812 320.515625 372.027344 320.160156 373.566406 C 319.804688 375.105469 319.792969 376.648438 320.125 378.191406 C 320.957031 380.609375 322.089844 382.878906 323.515625 385.003906 L 325.472656 388.160156 C 334.953125 403.648438 346.246094 417.671875 359.359375 430.238281 C 363.34375 434.089844 367.230469 438.042969 371.417969 441.730469 C 387.066406 455.53125 404.449219 466.601562 423.570312 474.949219 L 423.738281 475.015625 C 426.5625 476.246094 427.988281 476.910156 432.109375 478.671875 C 434.171875 479.558594 436.285156 480.296875 438.453125 480.886719 C 439.566406 481.167969 440.699219 481.285156 441.847656 481.230469 C 443 481.175781 444.113281 480.957031 445.199219 480.574219 C 446.28125 480.191406 447.289062 479.65625 448.214844 478.972656 C 449.140625 478.292969 449.945312 477.488281 450.632812 476.566406 C 474.683594 447.433594 476.878906 445.5625 477.078125 445.5625 L 477.078125 445.628906 C 477.910156 444.847656 478.820312 444.167969 479.800781 443.582031 C 480.78125 442.996094 481.816406 442.523438 482.898438 442.15625 C 483.980469 441.792969 485.089844 441.550781 486.226562 441.421875 C 487.359375 441.296875 488.496094 441.292969 489.632812 441.410156 C 491.671875 441.503906 493.632812 441.945312 495.511719 442.738281 C 513.152344 450.8125 542.019531 463.402344 542.019531 463.402344 L 561.355469 472.070312 C 564.609375 473.632812 567.566406 477.320312 567.664062 480.875 C 567.921875 485.019531 567.777344 489.148438 567.234375 493.265625 C 566.125 501.871094 563.578125 512.199219 560.988281 517.625 C 559.207031 521.347656 556.878906 524.691406 554.011719 527.660156 C 550.652344 531.183594 547 534.375 543.050781 537.226562 C 541.691406 538.257812 540.308594 539.257812 538.898438 540.214844 C 534.769531 542.84375 530.53125 545.28125 526.175781 547.523438 C 521.898438 549.796875 517.421875 551.578125 512.753906 552.867188 C 508.082031 554.15625 503.328125 554.921875 498.492188 555.164062 C 492.34375 555.652344 486.1875 555.808594 480.023438 555.628906 C 479.757812 555.628906 461.199219 552.738281 461.199219 552.738281 C 449.429688 549.644531 437.882812 545.875 426.554688 541.4375 C 415.222656 537 404.191406 531.917969 393.453125 526.199219 C 382.710938 520.476562 372.34375 514.152344 362.339844 507.222656 C 352.335938 500.296875 342.769531 492.8125 333.636719 484.773438 C 326.128906 478.128906 319.183594 471.050781 312.074219 463.976562 C 282.511719 434.578125 260.1875 402.851562 246.632812 372.890625 C 243.167969 365.53125 240.511719 357.894531 238.664062 349.976562 C 236.8125 342.058594 235.8125 334.035156 235.660156 325.90625 C 235.625 320.898438 236.003906 315.921875 236.796875 310.976562 C 237.585938 306.03125 238.777344 301.1875 240.371094 296.4375 C 241.964844 291.691406 243.941406 287.109375 246.292969 282.6875 C 248.644531 278.265625 251.347656 274.070312 254.394531 270.097656 C 256.996094 266.472656 259.886719 263.097656 263.066406 259.964844 C 267.285156 255.980469 269.941406 253.851562 272.832031 252.390625 C 276.714844 250.445312 280.824219 249.339844 285.15625 249.070312 Z M 285.191406 249.101562 " fill-opacity="1" fill-rule="nonzero"/></g></svg>